<svg xmlns="http://www.w3.org/2000/svg" viewBox="0 0 1280 320" width="1280" height="320" role="img" aria-label="web-mirror: any webpage, mirrored for offline reading"><title>web-mirror: any webpage, mirrored for offline reading</title><defs><path id="avenirheavy0" d="M404 0H175L-5 526H242L308 254H312L380 526H602L675 254H678L742 526H978L796 0H566L485 270H483Z"/><path id="avenirheavy1" d="M403 333Q403 361 382 379Q362 397 327 397Q289 397 268 376Q247 355 244 333ZM602 258Q602 245 602 232Q601 218 600 209H246Q247 195 256 184Q264 173 276 165Q289 157 304 153Q320 149 336 149Q368 149 390 160Q411 172 422 186L586 103Q551 46 484 13Q418 -20 330 -20Q273 -20 219 -2Q165 16 124 52Q82 87 57 140Q32 193 32 263Q32 328 55 380Q78 433 118 470Q157 506 210 526Q264 546 325 546Q387 546 438 524Q489 503 526 464Q562 426 582 373Q602 320 602 258Z"/><path id="avenirheavy2" d="M662 265Q662 213 646 163Q631 113 601 74Q571 34 526 10Q481 -14 422 -14Q373 -14 329 4Q285 23 262 55H260V0H53V756H283V484H285Q308 511 346 526Q384 540 422 540Q481 540 526 516Q571 492 601 453Q631 414 646 365Q662 316 662 265ZM448 265Q448 300 426 326Q404 352 362 352Q321 352 296 326Q272 300 272 265Q272 228 296 202Q321 176 362 176Q404 176 426 202Q448 227 448 265Z"/><path id="avenirheavy3" d="M30 371H306V199H30Z"/><path id="avenirheavy4" d="M375 0V276Q375 316 365 334Q355 352 332 352Q315 352 300 336Q284 320 284 279V0H53V526H278V468H280Q290 481 304 494Q319 506 338 516Q356 527 379 534Q402 540 429 540Q481 540 519 522Q557 503 579 464Q605 496 643 518Q681 540 739 540Q795 540 832 518Q868 496 890 463Q911 430 920 392Q928 353 928 320V0H697V280Q697 323 686 338Q676 352 654 352Q634 352 620 334Q606 315 606 279V0Z"/><path id="avenirheavy5" d="M54 526H285V0H54ZM50 678Q50 702 60 724Q69 745 86 761Q102 777 124 786Q146 796 171 796Q195 796 216 786Q237 777 254 761Q270 745 280 724Q289 702 289 678Q289 653 280 632Q270 610 254 594Q237 579 216 570Q195 561 171 561Q146 561 124 570Q102 579 86 594Q69 610 60 632Q50 653 50 678Z"/><path id="avenirheavy6" d="M53 526H275V466H277Q294 498 328 519Q361 540 406 540Q433 540 450 535L432 339Q421 342 408 344Q394 345 383 345Q338 345 311 319Q284 293 284 255V0H53Z"/><path id="avenirheavy7" d="M632 265Q632 197 608 144Q583 91 542 54Q500 18 446 -1Q391 -20 331 -20Q272 -20 218 -1Q163 18 122 54Q81 91 56 144Q32 197 32 265Q32 332 56 384Q81 437 122 473Q163 509 218 528Q272 546 331 546Q391 546 446 528Q500 509 542 473Q583 437 608 384Q632 332 632 265ZM331 352Q293 352 270 326Q246 300 246 265Q246 228 270 202Q294 176 332 176Q370 176 394 202Q418 228 418 265Q418 300 394 326Q369 352 331 352Z"/><path id="avenirmed10" d="M261 102H263L394 474H494L264 -112Q252 -142 238 -166Q224 -189 205 -206Q186 -222 160 -231Q135 -240 100 -240Q85 -240 70 -238Q54 -237 38 -233L47 -150Q71 -158 94 -158Q131 -158 149 -138Q167 -117 182 -79L212 0L9 474H114Z"/><path id="avenirmed11" d="M116 474 223 112H225L338 474H437L552 112H554L661 474H760L603 0H505L388 356H386L270 0H172L14 474Z"/><path id="avenirmed12" d="M428 279Q427 307 418 332Q410 356 394 374Q377 392 352 402Q328 413 295 413Q265 413 238 402Q212 392 192 374Q173 356 160 332Q148 307 146 279ZM523 241Q523 233 523 225Q523 217 522 209H146Q147 179 160 152Q172 126 193 106Q214 87 242 76Q269 65 300 65Q348 65 383 86Q418 107 438 137L504 84Q466 34 414 10Q363 -13 300 -13Q246 -13 200 5Q154 23 121 56Q88 88 69 134Q50 180 50 236Q50 291 68 338Q87 384 120 417Q153 450 198 468Q243 487 295 487Q347 487 390 470Q432 453 462 421Q491 389 507 344Q523 298 523 241Z"/><path id="avenirmed13" d="M174 75V0H83V756H177V403H180Q204 438 247 462Q290 487 349 487Q402 487 446 468Q489 449 520 415Q552 381 569 336Q586 290 586 238Q586 186 569 140Q552 94 521 60Q490 26 446 6Q402 -13 347 -13Q296 -13 250 10Q204 32 176 75ZM489 238Q489 271 479 302Q469 333 449 357Q429 381 400 395Q370 409 331 409Q295 409 266 395Q236 381 215 357Q194 333 182 302Q171 271 171 237Q171 203 182 172Q194 141 215 118Q236 94 266 80Q295 66 331 66Q370 66 400 80Q429 95 449 119Q469 143 479 174Q489 205 489 238Z"/><path id="avenirmed14" d="M175 -240H81V474H173V400H176Q199 438 244 462Q288 487 347 487Q400 487 444 468Q487 449 518 415Q550 381 567 336Q584 290 584 238Q584 186 567 140Q550 94 519 60Q488 26 444 6Q400 -13 345 -13Q294 -13 249 9Q204 31 178 71H175ZM487 238Q487 271 477 302Q467 333 447 357Q427 381 398 395Q368 409 329 409Q293 409 264 395Q234 381 213 357Q192 333 180 302Q169 271 169 237Q169 203 180 172Q192 141 213 118Q234 94 264 80Q293 66 329 66Q368 66 398 80Q427 95 447 119Q467 143 477 174Q487 205 487 238Z"/><path id="avenirmed15" d="M376 307Q376 360 344 386Q312 411 259 411Q219 411 184 396Q148 380 124 356L74 416Q109 449 160 468Q210 487 268 487Q319 487 356 472Q394 458 418 433Q442 408 454 374Q466 340 466 301V94Q466 70 468 44Q469 17 473 0H388Q380 34 380 68H377Q351 30 312 9Q272 -12 218 -12Q190 -12 160 -4Q129 3 104 20Q79 37 62 65Q46 93 46 134Q46 188 75 220Q104 251 151 268Q198 284 257 289Q316 294 376 294ZM353 226Q318 226 280 223Q243 220 212 211Q182 202 162 184Q142 166 142 136Q142 115 150 101Q159 87 173 78Q187 69 204 66Q221 62 239 62Q305 62 340 102Q376 141 376 201V226Z"/><path id="avenirmed16" d="M118 -81Q149 -116 196 -137Q242 -158 291 -158Q338 -158 370 -144Q402 -131 422 -108Q441 -84 450 -52Q458 -20 458 17V78H456Q430 38 385 17Q340 -4 289 -4Q235 -4 190 15Q146 34 115 67Q84 100 67 144Q50 189 50 240Q50 291 67 336Q84 381 115 414Q146 448 190 468Q234 487 288 487Q339 487 386 465Q432 443 459 398H461V474H552V24Q552 -28 539 -76Q526 -123 495 -160Q464 -196 414 -218Q364 -240 290 -240Q228 -240 166 -218Q103 -195 58 -154ZM147 242Q147 209 158 179Q168 149 188 126Q209 103 238 89Q267 75 304 75Q340 75 370 88Q400 101 421 124Q442 146 454 176Q465 207 465 242Q465 276 454 306Q442 336 420 359Q399 382 370 396Q340 409 304 409Q267 409 238 396Q209 382 188 360Q168 337 158 306Q147 276 147 242Z"/><path id="avenirmed17" d="M114 -133H34L103 117H197Z"/><path id="avenirmed18" d="M173 396Q191 434 230 460Q270 487 324 487Q372 487 410 465Q449 443 471 392Q495 438 538 462Q581 487 632 487Q678 487 711 472Q744 456 766 430Q788 404 798 369Q809 334 809 294V0H715V263Q715 292 710 318Q705 344 693 364Q681 384 661 396Q641 408 610 408Q578 408 555 394Q532 381 518 360Q503 338 496 311Q490 284 490 256V0H396V282Q396 310 391 333Q386 356 374 372Q362 389 343 398Q324 408 296 408Q244 408 210 366Q175 323 175 252V0H81V372Q81 391 80 421Q79 451 77 474H166Q168 456 169 434Q170 411 170 396H173Z"/><path id="avenirmed19" d="M176 0H82V474H176ZM192 645Q192 619 174 602Q155 585 129 585Q103 585 85 602Q67 620 67 645Q67 671 85 688Q103 706 129 706Q155 706 174 688Q192 671 192 645Z"/><path id="avenirmed20" d="M81 372Q81 391 80 421Q79 451 77 474H166Q168 456 169 432Q170 409 170 394H173Q193 436 232 462Q270 487 318 487Q340 487 355 483L351 396Q331 401 308 401Q274 401 249 388Q224 376 208 355Q191 334 183 306Q175 279 175 249V0H81V372Z"/><path id="avenirmed21" d="M561 238Q561 183 542 137Q522 91 488 58Q453 24 406 6Q359 -13 305 -13Q251 -13 204 6Q157 24 123 58Q89 91 70 137Q50 183 50 238Q50 293 70 338Q89 384 123 417Q157 450 204 468Q251 487 305 487Q359 487 406 468Q453 450 488 417Q522 384 542 338Q561 293 561 238ZM463 238Q463 272 452 303Q442 334 422 358Q402 381 372 395Q343 409 305 409Q267 409 238 395Q208 381 188 358Q168 334 158 303Q147 272 147 238Q147 204 158 173Q168 142 188 118Q208 94 238 80Q267 66 305 66Q343 66 372 80Q402 94 422 118Q442 142 452 173Q463 204 463 238Z"/><path id="avenirmed22" d="M459 75Q432 32 386 10Q339 -13 288 -13Q233 -13 189 6Q145 26 114 60Q83 94 66 140Q49 186 49 238Q49 290 66 336Q83 381 114 415Q146 449 190 468Q234 487 287 487Q345 487 388 462Q431 438 456 403H458V756H552V0H461V75ZM147 238Q147 205 157 174Q167 143 187 119Q207 95 236 80Q265 66 304 66Q340 66 370 80Q399 94 420 118Q441 141 452 172Q464 203 464 237Q464 271 452 302Q441 333 420 357Q399 381 370 395Q340 409 304 409Q265 409 236 395Q207 381 187 357Q167 333 157 302Q147 271 147 238Z"/><path id="avenirmed23" d="M304 397H194V0H100V397H6V474H100V573Q100 615 110 650Q119 686 140 712Q162 738 196 753Q229 768 277 768Q311 768 336 761L325 680Q314 683 303 685Q292 687 278 687Q251 687 234 678Q218 668 209 652Q200 636 197 616Q194 595 194 573V474H304Z"/><path id="avenirmed24" d="M177 0H83V756H177Z"/><path id="avenirmed8" d="M115 0H5L312 708H402L706 0H594L522 174H186ZM221 261H486L354 593Z"/><path id="avenirmed9" d="M166 474Q168 456 169 434Q170 411 170 396H173Q182 415 198 432Q213 448 233 460Q253 473 277 480Q301 487 327 487Q373 487 406 472Q439 456 461 430Q483 404 494 369Q504 334 504 294V0H410V263Q410 292 406 318Q401 344 389 364Q377 384 356 396Q335 408 302 408Q246 408 210 366Q175 323 175 252V0H81V372Q81 391 80 421Q79 451 77 474Z"/><clipPath id="bl"><circle cx="1020" cy="176" r="116"/></clipPath></defs><clipPath id="c"><rect width="1280" height="320" rx="18"/></clipPath>
<g clip-path="url(#c)">
<rect width="1280" height="320" fill="#0b0b12"/>
<path d="M1020 176L665 360L683 392Z" fill="#fff" opacity=".035"/><path d="M1020 176L650 22L638 56Z" fill="#fff" opacity=".035"/><path d="M1020 176L1390 330L1402 296Z" fill="#fff" opacity=".035"/><path d="M1020 176L1204 531L1236 513Z" fill="#fff" opacity=".035"/><path d="M1020 176L866 546L900 558Z" fill="#fff" opacity=".035"/><path d="M1020 176L1375 -8L1357 -40Z" fill="#fff" opacity=".035"/>
<rect x="327" y="280" width="10" height="7" rx="2" fill="#ffffff" opacity="0.47" transform="rotate(0 327 280)"/><rect x="733" y="182" width="11" height="7" rx="2" fill="#c4b5fd" opacity="0.36" transform="rotate(0 733 182)"/><rect x="529" y="269" width="7" height="5" rx="2" fill="#c4b5fd" opacity="0.60" transform="rotate(0 529 269)"/><rect x="883" y="287" width="7" height="5" rx="2" fill="#c4b5fd" opacity="0.54" transform="rotate(0 883 287)"/><rect x="753" y="295" width="10" height="7" rx="2" fill="#ffffff" opacity="0.31" transform="rotate(0 753 295)"/><rect x="433" y="237" width="7" height="5" rx="2" fill="#c4b5fd" opacity="0.58" transform="rotate(0 433 237)"/><rect x="74" y="298" width="6" height="4" rx="2" fill="#c4b5fd" opacity="0.61" transform="rotate(0 74 298)"/><rect x="1116" y="33" width="11" height="7" rx="2" fill="#ffffff" opacity="0.56" transform="rotate(0 1116 33)"/><rect x="864" y="30" width="11" height="7" rx="2" fill="#ffffff" opacity="0.65" transform="rotate(0 864 30)"/><rect x="929" y="44" width="6" height="5" rx="2" fill="#ffffff" opacity="0.31" transform="rotate(0 929 44)"/><rect x="592" y="226" width="8" height="5" rx="2" fill="#ffffff" opacity="0.43" transform="rotate(0 592 226)"/><rect x="1206" y="129" width="9" height="6" rx="2" fill="#ffffff" opacity="0.65" transform="rotate(0 1206 129)"/><rect x="849" y="208" width="11" height="8" rx="2" fill="#ffffff" opacity="0.34" transform="rotate(0 849 208)"/><rect x="1192" y="115" width="9" height="6" rx="2" fill="#ffffff" opacity="0.57" transform="rotate(0 1192 115)"/><rect x="661" y="37" width="7" height="5" rx="2" fill="#ffffff" opacity="0.56" transform="rotate(0 661 37)"/><rect x="492" y="278" width="8" height="6" rx="2" fill="#ffffff" opacity="0.67" transform="rotate(0 492 278)"/><rect x="717" y="201" width="8" height="6" rx="2" fill="#ffffff" opacity="0.61" transform="rotate(0 717 201)"/><rect x="901" y="50" width="7" height="5" rx="2" fill="#c4b5fd" opacity="0.44" transform="rotate(0 901 50)"/><rect x="1104" y="32" width="9" height="6" rx="2" fill="#ffffff" opacity="0.58" transform="rotate(0 1104 32)"/><rect x="668" y="265" width="11" height="8" rx="2" fill="#c4b5fd" opacity="0.52" transform="rotate(0 668 265)"/><rect x="370" y="48" width="7" height="5" rx="2" fill="#ffffff" opacity="0.37" transform="rotate(0 370 48)"/><rect x="733" y="77" width="7" height="5" rx="2" fill="#ffffff" opacity="0.31" transform="rotate(0 733 77)"/>
<path d="M1020 0V52" stroke="#6b7280" stroke-width="4" stroke-dasharray="7 3"/>
<rect x="1011" y="48" width="18" height="14" rx="3" fill="#9ca3af"/>
<circle cx="1020" cy="176" r="117.5" fill="#1a1a24"/>
<g clip-path="url(#bl)" stroke="#1a1a24" stroke-width="1.3" stroke-linejoin="round"><path d="M1020.0 292.0L1020.0 292.0L1004.0 289.8L997.4 289.8ZM1020.0 292.0L1020.0 292.0L1020.0 289.8L1004.0 289.8ZM997.4 289.8L1001.7 289.8L984.1 283.2L975.6 283.2ZM1013.0 289.8L1027.0 289.8L1033.7 283.2L1006.3 283.2ZM1037.0 283.2L1051.4 283.2L1065.6 272.5L1044.7 272.5ZM1051.4 283.2L1061.0 283.2L1079.5 272.5L1065.6 272.5ZM1061.0 283.2L1064.4 283.2L1084.4 272.5L1079.5 272.5ZM967.9 272.5L982.1 272.5L971.8 258.0L953.6 258.0ZM1000.1 272.5L1020.0 272.5L1020.0 258.0L994.7 258.0ZM1020.0 272.5L1039.9 272.5L1045.3 258.0L1020.0 258.0ZM1039.9 272.5L1057.9 272.5L1068.2 258.0L1045.3 258.0ZM1057.9 272.5L1072.1 272.5L1086.4 258.0L1068.2 258.0ZM1020.0 258.0L1041.2 258.0L1045.0 240.4L1020.0 240.4ZM1078.0 258.0L1091.0 258.0L1103.5 240.4L1088.2 240.4ZM1099.2 258.0L1102.0 258.0L1116.5 240.4L1113.2 240.4ZM1117.9 220.4L1124.8 220.4L1131.3 198.6L1123.9 198.6ZM1114.6 198.6L1125.1 198.6L1127.2 176.0L1116.5 176.0ZM1125.1 198.6L1131.6 198.6L1133.8 176.0L1127.2 176.0ZM1131.6 198.6L1133.8 198.6L1136.0 176.0L1133.8 176.0ZM1102.0 176.0L1116.5 176.0L1114.6 153.4L1100.4 153.4ZM1116.5 176.0L1127.2 176.0L1125.1 153.4L1114.6 153.4ZM1133.8 176.0L1136.0 176.0L1133.8 153.4L1131.6 153.4ZM1112.0 153.4L1123.9 153.4L1117.9 131.6L1106.7 131.6ZM1123.9 153.4L1131.3 153.4L1124.8 131.6L1117.9 131.6ZM1124.5 131.6L1127.2 131.6L1116.5 111.6L1114.0 111.6Z" fill="#3e3e4c"/><path d="M1020.0 292.0L1020.0 292.0L1036.0 289.8L1020.0 289.8ZM975.6 283.2L979.0 283.2L960.5 272.5L955.6 272.5ZM933.1 240.4L944.6 240.4L936.2 220.4L923.4 220.4ZM928.0 153.4L943.9 153.4L948.3 131.6L933.3 131.6ZM1020.0 79.5L1044.7 79.5L1037.0 68.8L1020.0 68.8Z" fill="#a78bfa"/><path d="M1020.0 292.0L1020.0 292.0L1042.6 289.8L1036.0 289.8ZM1001.7 289.8L1013.0 289.8L1006.3 283.2L984.1 283.2ZM1027.0 289.8L1038.3 289.8L1055.9 283.2L1033.7 283.2ZM1003.0 283.2L1020.0 283.2L1020.0 272.5L995.3 272.5ZM1020.0 283.2L1037.0 283.2L1044.7 272.5L1020.0 272.5ZM982.1 272.5L1000.1 272.5L994.7 258.0L971.8 258.0ZM1081.3 272.5L1084.4 272.5L1102.0 258.0L1098.0 258.0ZM938.0 258.0L940.8 258.0L926.8 240.4L923.5 240.4ZM949.0 258.0L962.0 258.0L951.8 240.4L936.5 240.4ZM979.0 258.0L998.8 258.0L995.0 240.4L971.8 240.4ZM998.8 258.0L1020.0 258.0L1020.0 240.4L995.0 240.4ZM1091.0 258.0L1099.2 258.0L1113.2 240.4L1103.5 240.4ZM1020.0 240.4L1041.5 240.4L1043.8 220.4L1020.0 220.4ZM1041.5 240.4L1061.8 240.4L1066.5 220.4L1043.8 220.4ZM1061.8 240.4L1080.1 240.4L1086.8 220.4L1066.5 220.4ZM1080.1 240.4L1095.4 240.4L1103.8 220.4L1086.8 220.4ZM1106.9 240.4L1114.0 240.4L1124.5 220.4L1116.6 220.4ZM1114.0 240.4L1116.5 240.4L1127.2 220.4L1124.5 220.4ZM1031.2 220.4L1053.1 220.4L1055.2 198.6L1031.9 198.6ZM1053.1 220.4L1073.6 220.4L1076.9 198.6L1055.2 198.6ZM1091.7 220.4L1106.7 220.4L1112.0 198.6L1096.1 198.6ZM1106.7 220.4L1117.9 220.4L1123.9 198.6L1112.0 198.6ZM1124.8 220.4L1127.2 220.4L1133.8 198.6L1131.3 198.6ZM1083.2 198.6L1100.4 198.6L1102.0 176.0L1084.4 176.0ZM1096.1 153.4L1112.0 153.4L1106.7 131.6L1091.7 131.6ZM1131.3 153.4L1133.8 153.4L1127.2 131.6L1124.8 131.6ZM1103.8 131.6L1116.6 131.6L1106.9 111.6L1095.4 111.6ZM1116.6 131.6L1124.5 131.6L1114.0 111.6L1106.9 111.6ZM1103.5 111.6L1113.2 111.6L1099.2 94.0L1091.0 94.0ZM1113.2 111.6L1116.5 111.6L1102.0 94.0L1099.2 94.0Z" fill="#545462"/><path d="M1038.3 289.8L1042.6 289.8L1064.4 283.2L1055.9 283.2ZM979.0 283.2L988.6 283.2L974.4 272.5L960.5 272.5ZM988.6 283.2L1003.0 283.2L995.3 272.5L974.4 272.5ZM955.6 272.5L958.7 272.5L942.0 258.0L938.0 258.0ZM958.7 272.5L967.9 272.5L953.6 258.0L942.0 258.0ZM1072.1 272.5L1081.3 272.5L1098.0 258.0L1086.4 258.0ZM1041.2 258.0L1061.0 258.0L1068.2 240.4L1045.0 240.4ZM1061.0 258.0L1078.0 258.0L1088.2 240.4L1068.2 240.4ZM1095.4 240.4L1106.9 240.4L1116.6 220.4L1103.8 220.4ZM1073.6 220.4L1091.7 220.4L1096.1 198.6L1076.9 198.6ZM1127.2 176.0L1133.8 176.0L1131.6 153.4L1125.1 153.4Z" fill="#282836"/><path d="M940.8 258.0L949.0 258.0L936.5 240.4L926.8 240.4ZM962.0 258.0L979.0 258.0L971.8 240.4L951.8 240.4ZM923.5 240.4L926.0 240.4L915.5 220.4L912.8 220.4ZM926.0 240.4L933.1 240.4L923.4 220.4L915.5 220.4ZM978.2 240.4L998.5 240.4L996.2 220.4L973.5 220.4ZM1063.5 198.6L1083.2 198.6L1084.4 176.0L1064.4 176.0ZM1084.4 176.0L1102.0 176.0L1100.4 153.4L1083.2 153.4ZM1076.9 153.4L1096.1 153.4L1091.7 131.6L1073.6 131.6ZM1086.8 131.6L1103.8 131.6L1095.4 111.6L1080.1 111.6Z" fill="#6a6a78"/><path d="M944.6 240.4L959.9 240.4L953.2 220.4L936.2 220.4ZM1100.4 198.6L1114.6 198.6L1116.5 176.0L1102.0 176.0ZM1098.0 94.0L1102.0 94.0L1084.4 79.5L1081.3 79.5ZM1079.5 79.5L1084.4 79.5L1064.4 68.8L1061.0 68.8Z" fill="#60a5fa"/><path d="M959.9 240.4L978.2 240.4L973.5 220.4L953.2 220.4ZM912.8 220.4L915.2 220.4L908.7 198.6L906.2 198.6ZM922.1 220.4L933.3 220.4L928.0 198.6L916.1 198.6ZM948.3 220.4L966.4 220.4L963.1 198.6L943.9 198.6ZM1008.8 220.4L1031.2 220.4L1031.9 198.6L1008.1 198.6ZM976.5 198.6L997.8 198.6L997.4 176.0L975.6 176.0ZM1042.2 198.6L1063.5 198.6L1064.4 176.0L1042.6 176.0ZM904.0 176.0L906.2 176.0L908.4 153.4L906.2 153.4ZM1066.5 131.6L1086.8 131.6L1080.1 111.6L1061.8 111.6ZM1045.0 111.6L1068.2 111.6L1061.0 94.0L1041.2 94.0ZM1068.2 111.6L1088.2 111.6L1078.0 94.0L1061.0 94.0ZM1068.2 94.0L1086.4 94.0L1072.1 79.5L1057.9 79.5ZM1033.7 68.8L1055.9 68.8L1038.3 62.2L1027.0 62.2ZM1055.9 68.8L1064.4 68.8L1042.6 62.2L1038.3 62.2Z" fill="#9696a4"/><path d="M998.5 240.4L1020.0 240.4L1020.0 220.4L996.2 220.4ZM915.2 220.4L922.1 220.4L916.1 198.6L908.7 198.6ZM966.4 220.4L986.9 220.4L984.8 198.6L963.1 198.6ZM986.9 220.4L1008.8 220.4L1008.1 198.6L984.8 198.6ZM1020.0 198.6L1042.2 198.6L1042.6 176.0L1020.0 176.0ZM1042.6 176.0L1064.4 176.0L1063.5 153.4L1042.2 153.4ZM1055.2 153.4L1076.9 153.4L1073.6 131.6L1053.1 131.6ZM1043.8 131.6L1066.5 131.6L1061.8 111.6L1041.5 111.6ZM1088.2 111.6L1103.5 111.6L1091.0 94.0L1078.0 94.0ZM1086.4 94.0L1098.0 94.0L1081.3 79.5L1072.1 79.5Z" fill="#80808e"/><path d="M933.3 220.4L948.3 220.4L943.9 198.6L928.0 198.6ZM906.2 198.6L908.4 198.6L906.2 176.0L904.0 176.0ZM908.4 198.6L914.9 198.6L912.8 176.0L906.2 176.0ZM925.4 198.6L939.6 198.6L938.0 176.0L923.5 176.0ZM939.6 198.6L956.8 198.6L955.6 176.0L938.0 176.0ZM997.8 198.6L1020.0 198.6L1020.0 176.0L997.4 176.0ZM955.6 176.0L975.6 176.0L976.5 153.4L956.8 153.4ZM997.4 176.0L1020.0 176.0L1020.0 153.4L997.8 153.4ZM1020.0 176.0L1042.6 176.0L1042.2 153.4L1020.0 153.4ZM906.2 153.4L908.7 153.4L915.2 131.6L912.8 131.6ZM1008.1 153.4L1031.9 153.4L1031.2 131.6L1008.8 131.6ZM1031.9 153.4L1055.2 153.4L1053.1 131.6L1031.2 131.6ZM1020.0 131.6L1043.8 131.6L1041.5 111.6L1020.0 111.6ZM1044.7 79.5L1065.6 79.5L1051.4 68.8L1037.0 68.8ZM1065.6 79.5L1079.5 79.5L1061.0 68.8L1051.4 68.8ZM975.6 68.8L984.1 68.8L1001.7 62.2L997.4 62.2ZM1004.0 62.2L1020.0 62.2L1020.0 60.0L1020.0 60.0Z" fill="#acacba"/><path d="M914.9 198.6L925.4 198.6L923.5 176.0L912.8 176.0ZM956.8 198.6L976.5 198.6L975.6 176.0L955.6 176.0ZM906.2 176.0L912.8 176.0L914.9 153.4L908.4 153.4ZM912.8 176.0L923.5 176.0L925.4 153.4L914.9 153.4ZM923.5 176.0L938.0 176.0L939.6 153.4L925.4 153.4ZM938.0 176.0L955.6 176.0L956.8 153.4L939.6 153.4ZM943.9 153.4L963.1 153.4L966.4 131.6L948.3 131.6ZM915.5 131.6L923.4 131.6L933.1 111.6L926.0 111.6ZM923.5 111.6L926.8 111.6L940.8 94.0L938.0 94.0ZM951.8 111.6L971.8 111.6L979.0 94.0L962.0 94.0ZM995.0 111.6L1020.0 111.6L1020.0 94.0L998.8 94.0ZM1020.0 111.6L1045.0 111.6L1041.2 94.0L1020.0 94.0ZM938.0 94.0L942.0 94.0L958.7 79.5L955.6 79.5ZM994.7 94.0L1020.0 94.0L1020.0 79.5L1000.1 79.5ZM1020.0 94.0L1045.3 94.0L1039.9 79.5L1020.0 79.5ZM1045.3 94.0L1068.2 94.0L1057.9 79.5L1039.9 79.5ZM955.6 79.5L960.5 79.5L979.0 68.8L975.6 68.8ZM1006.3 68.8L1033.7 68.8L1027.0 62.2L1013.0 62.2ZM997.4 62.2L1004.0 62.2L1020.0 60.0L1020.0 60.0ZM1020.0 62.2L1036.0 62.2L1020.0 60.0L1020.0 60.0ZM1036.0 62.2L1042.6 62.2L1020.0 60.0L1020.0 60.0Z" fill="#c2c2d0"/><path d="M975.6 176.0L997.4 176.0L997.8 153.4L976.5 153.4ZM963.1 153.4L984.8 153.4L986.9 131.6L966.4 131.6ZM984.8 153.4L1008.1 153.4L1008.8 131.6L986.9 131.6ZM953.2 131.6L973.5 131.6L978.2 111.6L959.9 111.6ZM973.5 131.6L996.2 131.6L998.5 111.6L978.2 111.6ZM996.2 131.6L1020.0 131.6L1020.0 111.6L998.5 111.6Z" fill="#ffffff"/><path d="M1064.4 176.0L1084.4 176.0L1083.2 153.4L1063.5 153.4ZM912.8 131.6L915.5 131.6L926.0 111.6L923.5 111.6Z" fill="#fbbf24"/><path d="M908.7 153.4L916.1 153.4L922.1 131.6L915.2 131.6ZM923.4 131.6L936.2 131.6L944.6 111.6L933.1 111.6ZM936.2 131.6L953.2 131.6L959.9 111.6L944.6 111.6ZM926.8 111.6L936.5 111.6L949.0 94.0L940.8 94.0ZM936.5 111.6L951.8 111.6L962.0 94.0L949.0 94.0ZM971.8 111.6L995.0 111.6L998.8 94.0L979.0 94.0ZM953.6 94.0L971.8 94.0L982.1 79.5L967.9 79.5ZM960.5 79.5L974.4 79.5L988.6 68.8L979.0 68.8ZM974.4 79.5L995.3 79.5L1003.0 68.8L988.6 68.8ZM995.3 79.5L1020.0 79.5L1020.0 68.8L1003.0 68.8Z" fill="#d8d8e6"/><path d="M916.1 153.4L928.0 153.4L933.3 131.6L922.1 131.6ZM942.0 94.0L953.6 94.0L967.9 79.5L958.7 79.5ZM971.8 94.0L994.7 94.0L1000.1 79.5L982.1 79.5Z" fill="#eeeefc"/><path d="M984.1 68.8L1006.3 68.8L1013.0 62.2L1001.7 62.2Z" fill="#f472b6"/></g>
<circle cx="982" cy="132" r="16" fill="#fff" opacity=".45"/><circle cx="982" cy="132" r="7" fill="#fff"/>
<g transform="translate(86.5 158.0) scale(0.10000 -0.10000)" fill="#ffffff"><use href="#avenirheavy0" x="0"/><use href="#avenirheavy1" x="973"/><use href="#avenirheavy2" x="1603"/><use href="#avenirheavy3" x="2297"/><use href="#avenirheavy4" x="2633"/><use href="#avenirheavy5" x="3609"/><use href="#avenirheavy6" x="3948"/><use href="#avenirheavy6" x="4393"/><use href="#avenirheavy7" x="4820"/><use href="#avenirheavy6" x="5484"/></g>
<g transform="translate(89.9 210.0) scale(0.02995 -0.02995)" fill="#c4b5fd"><use href="#avenirmed8" x="0"/><use href="#avenirmed9" x="711"/><use href="#avenirmed10" x="1293"/><use href="#avenirmed11" x="2047"/><use href="#avenirmed12" x="2820"/><use href="#avenirmed13" x="3393"/><use href="#avenirmed14" x="4029"/><use href="#avenirmed15" x="4663"/><use href="#avenirmed16" x="5205"/><use href="#avenirmed12" x="5837"/><use href="#avenirmed17" x="6410"/><use href="#avenirmed18" x="6890"/><use href="#avenirmed19" x="7777"/><use href="#avenirmed20" x="8036"/><use href="#avenirmed20" x="8398"/><use href="#avenirmed21" x="8742"/><use href="#avenirmed20" x="9352"/><use href="#avenirmed12" x="9696"/><use href="#avenirmed22" x="10269"/><use href="#avenirmed23" x="11154"/><use href="#avenirmed21" x="11464"/><use href="#avenirmed20" x="12074"/><use href="#avenirmed21" x="12686"/><use href="#avenirmed23" x="13296"/><use href="#avenirmed23" x="13585"/><use href="#avenirmed24" x="13895"/><use href="#avenirmed19" x="14155"/><use href="#avenirmed9" x="14414"/><use href="#avenirmed12" x="14996"/><use href="#avenirmed20" x="15819"/><use href="#avenirmed12" x="16163"/><use href="#avenirmed15" x="16736"/><use href="#avenirmed22" x="17278"/><use href="#avenirmed19" x="17913"/><use href="#avenirmed9" x="18172"/><use href="#avenirmed16" x="18754"/></g>
</g>
</svg>